# xmcd
#
# Track frame offsets: 
#        150
#        88255
#        221195
#
# Disc length: 4429 seconds
#
# Revision: 3
# Processed by: cddbd v1.5.2PL0 Copyright (c) Steve Scherf et al.
# Submitted via: ExactAudioCopy v0.95b3
#
DISCID=29114b03
DTITLE=17th Gwyalwa Karmapa Orgyen Thinley Dorje - Mahakala
DYEAR=1998
DGENRE=Vajrayana
TTITLE0=Mahakala Part I
TTITLE1=Mahakala Part II
TTITLE2=Mahakala Part III
EXTD=YEAR: 1998
EXTT0=
EXTT1=
EXTT2=
PLAYORDER=
